<svg width="1920" height="1818" viewBox="0 0 1920 1818" fill="none" xmlns="http://www.w3.org/2000/svg">
<path d="M-265.833 1164.02C-265.833 1164.02 -18.6335 714.984 643.766 847.257C1306.17 979.53 1519.77 760.235 1609.37 575.749C1698.97 391.264 1910.17 -75.172 2194.97 25.7731C2479.77 126.718 2610.97 1017.82 2610.97 1017.82C2610.97 1017.82 2598.17 1459.89 2380.57 1411.16C2162.97 1362.42 1042.57 892.073 408.967 1422.9C-224.633 1953.74 142.966 1908.48 -319.434 1529.07C-781.834 1149.66 -265.833 1164.02 -265.833 1164.02Z" fill="#FFE530"/>
<mask id="mask0_1_436" style="mask-type:luminance" maskUnits="userSpaceOnUse" x="-512" y="11" width="3123" height="1807">
<path d="M-265.833 1164.02C-265.833 1164.02 -18.6335 714.984 643.766 847.257C1306.17 979.53 1519.77 760.235 1609.37 575.749C1698.97 391.264 1910.17 -75.172 2194.97 25.7731C2479.77 126.718 2610.97 1017.82 2610.97 1017.82C2610.97 1017.82 2598.17 1459.89 2380.57 1411.16C2162.97 1362.42 1042.57 892.073 408.967 1422.9C-224.633 1953.74 142.966 1908.48 -319.434 1529.07C-781.834 1149.66 -265.833 1164.02 -265.833 1164.02Z" fill="white"/>
</mask>
<g mask="url(#mask0_1_436)">
<g style="mix-blend-mode:multiply" opacity="0.2">
<path d="M2002.97 42.3397C2002.97 42.3397 1867.94 121.45 1790.36 519.64C1712.78 917.83 1544.3 1027.93 1037.63 980.458C530.966 932.991 189.149 764.223 -138.125 1051.66C-465.399 1339.09 -209.64 1909.35 -209.64 1909.35L2427.94 2070.21L2396.42 912.556L2002.97 42.3397Z" fill="#64B3ED" stroke="#707070"/>
</g>
</g>
<mask id="mask1_1_436" style="mask-type:luminance" maskUnits="userSpaceOnUse" x="-544" y="0" width="3123" height="1807">
<path d="M-297.92 1152.38C-297.92 1152.38 -50.7205 703.348 611.68 835.62C1274.08 967.893 1487.68 748.599 1577.28 564.113C1666.88 379.627 1878.08 -86.8083 2162.88 14.1367C2447.68 115.082 2578.88 1006.18 2578.88 1006.18C2578.88 1006.18 2566.08 1448.25 2348.48 1399.52C2130.88 1350.79 1010.48 880.436 376.88 1411.27C-256.72 1942.1 110.879 1896.85 -351.521 1517.43C-813.921 1138.02 -297.92 1152.38 -297.92 1152.38Z" fill="white"/>
</mask>
<g mask="url(#mask1_1_436)">
<g style="mix-blend-mode:multiply" opacity="0.15">
<path style="mix-blend-mode:multiply" d="M-192.636 1364.38C-192.636 1364.38 391.605 900.26 1249.79 1026.84C2107.97 1153.42 2229.18 1596.44 2229.18 1596.44L-243.545 1870.69L-192.636 1364.38Z" fill="url(#paint0_linear_1_436)"/>
</g>
</g>
<defs>
<linearGradient id="paint0_linear_1_436" x1="992.819" y1="1004.97" x2="992.819" y2="1870.69" gradientUnits="userSpaceOnUse">
<stop stop-color="#4487FF"/>
<stop offset="1" stop-color="#224480"/>
</linearGradient>
</defs>
</svg>
