<svg width="1517" height="601" viewBox="0 0 1517 601" fill="none" xmlns="http://www.w3.org/2000/svg">
<g filter="url(#filter0_d_0_1)">
<path d="M1490.07 3.76318H26.9668C15.9211 3.76318 6.9668 13.5034 6.9668 25.5186V570.228C6.9668 582.243 15.9211 591.983 26.9668 591.983H1490.07C1501.12 591.983 1510.07 582.243 1510.07 570.228V25.5186C1510.07 13.5034 1501.12 3.76318 1490.07 3.76318Z" fill="#563D9A"/>
</g>
<mask id="mask0_0_1" style="mask-type:luminance" maskUnits="userSpaceOnUse" x="6" y="3" width="1492" height="502">
<path d="M1477.64 3.76318H26.9668C15.9211 3.76318 6.9668 13.5034 6.9668 25.5186V482.917C6.9668 494.932 15.9211 504.672 26.9668 504.672H1477.64C1488.69 504.672 1497.64 494.932 1497.64 482.917V25.5186C1497.64 13.5034 1488.69 3.76318 1477.64 3.76318Z" fill="white"/>
</mask>
<g mask="url(#mask0_0_1)">
<g opacity="0.3">
<mask id="mask1_0_1" style="mask-type:luminance" maskUnits="userSpaceOnUse" x="-96" y="-88" width="1821" height="669">
<path d="M1724.96 -87.3118H-95.7632V580.568H1724.96V-87.3118Z" fill="white"/>
</mask>
<g mask="url(#mask1_0_1)">
<path style="mix-blend-mode:multiply" opacity="0.3" d="M212.237 582.754C382.341 582.754 520.237 432.755 520.237 247.721C520.237 62.6877 382.341 -87.3118 212.237 -87.3118C42.1331 -87.3118 -95.7632 62.6877 -95.7632 247.721C-95.7632 432.755 42.1331 582.754 212.237 582.754Z" fill="url(#paint0_linear_0_1)"/>
<path style="mix-blend-mode:multiply" opacity="0.3" d="M422.237 582.754C592.341 582.754 730.237 432.755 730.237 247.721C730.237 62.6877 592.341 -87.3118 422.237 -87.3118C252.133 -87.3118 114.237 62.6877 114.237 247.721C114.237 432.755 252.133 582.754 422.237 582.754Z" fill="url(#paint1_linear_0_1)"/>
<path style="mix-blend-mode:multiply" opacity="0.3" d="M632.237 582.754C802.341 582.754 940.237 432.755 940.237 247.721C940.237 62.6877 802.341 -87.3118 632.237 -87.3118C462.133 -87.3118 324.237 62.6877 324.237 247.721C324.237 432.755 462.133 582.754 632.237 582.754Z" fill="url(#paint2_linear_0_1)"/>
<path style="mix-blend-mode:multiply" opacity="0.3" d="M842.237 582.754C1012.34 582.754 1150.24 432.755 1150.24 247.721C1150.24 62.6877 1012.34 -87.3118 842.237 -87.3118C672.133 -87.3118 534.237 62.6877 534.237 247.721C534.237 432.755 672.133 582.754 842.237 582.754Z" fill="url(#paint3_linear_0_1)"/>
<path style="mix-blend-mode:multiply" opacity="0.3" d="M1052.24 582.754C1222.34 582.754 1360.24 432.755 1360.24 247.721C1360.24 62.6877 1222.34 -87.3118 1052.24 -87.3118C882.133 -87.3118 744.237 62.6877 744.237 247.721C744.237 432.755 882.133 582.754 1052.24 582.754Z" fill="url(#paint4_linear_0_1)"/>
<path style="mix-blend-mode:multiply" opacity="0.3" d="M1262.24 582.754C1432.34 582.754 1570.24 432.755 1570.24 247.721C1570.24 62.6877 1432.34 -87.3118 1262.24 -87.3118C1092.13 -87.3118 954.237 62.6877 954.237 247.721C954.237 432.755 1092.13 582.754 1262.24 582.754Z" fill="url(#paint5_linear_0_1)"/>
<path style="mix-blend-mode:multiply" opacity="0.3" d="M1472.24 582.754C1642.34 582.754 1780.24 432.755 1780.24 247.721C1780.24 62.6877 1642.34 -87.3118 1472.24 -87.3118C1302.13 -87.3118 1164.24 62.6877 1164.24 247.721C1164.24 432.755 1302.13 582.754 1472.24 582.754Z" fill="url(#paint6_linear_0_1)"/>
<path style="mix-blend-mode:multiply" opacity="0.3" d="M1682.24 582.754C1852.34 582.754 1990.24 432.755 1990.24 247.721C1990.24 62.6877 1852.34 -87.3118 1682.24 -87.3118C1512.13 -87.3118 1374.24 62.6877 1374.24 247.721C1374.24 432.755 1512.13 582.754 1682.24 582.754Z" fill="url(#paint7_linear_0_1)"/>
</g>
</g>
</g>
<defs>
<filter id="filter0_d_0_1" x="0.966797" y="0.763184" width="1515.1" height="600.22" filterUnits="userSpaceOnUse" color-interpolation-filters="sRGB">
<feFlood flood-opacity="0" result="BackgroundImageFix"/>
<feColorMatrix in="SourceAlpha" type="matrix" values="0 0 0 0 0 0 0 0 0 0 0 0 0 0 0 0 0 0 127 0" result="hardAlpha"/>
<feOffset dy="3"/>
<feGaussianBlur stdDeviation="3"/>
<feColorMatrix type="matrix" values="0 0 0 0 0 0 0 0 0 0 0 0 0 0 0 0 0 0 0.161 0"/>
<feBlend mode="normal" in2="BackgroundImageFix" result="effect1_dropShadow_0_1"/>
<feBlend mode="normal" in="SourceGraphic" in2="effect1_dropShadow_0_1" result="shape"/>
</filter>
<linearGradient id="paint0_linear_0_1" x1="-95.7632" y1="247.721" x2="391.024" y2="267.548" gradientUnits="userSpaceOnUse">
<stop stop-color="#2970F1"/>
<stop offset="1" stop-color="#153879" stop-opacity="0"/>
</linearGradient>
<linearGradient id="paint1_linear_0_1" x1="114.237" y1="247.721" x2="601.024" y2="267.548" gradientUnits="userSpaceOnUse">
<stop stop-color="#2970F1"/>
<stop offset="1" stop-color="#153879" stop-opacity="0"/>
</linearGradient>
<linearGradient id="paint2_linear_0_1" x1="324.237" y1="247.721" x2="811.024" y2="267.548" gradientUnits="userSpaceOnUse">
<stop stop-color="#2970F1"/>
<stop offset="1" stop-color="#153879" stop-opacity="0"/>
</linearGradient>
<linearGradient id="paint3_linear_0_1" x1="534.237" y1="247.721" x2="1021.02" y2="267.548" gradientUnits="userSpaceOnUse">
<stop stop-color="#2970F1"/>
<stop offset="1" stop-color="#153879" stop-opacity="0"/>
</linearGradient>
<linearGradient id="paint4_linear_0_1" x1="744.237" y1="247.721" x2="1231.02" y2="267.548" gradientUnits="userSpaceOnUse">
<stop stop-color="#2970F1"/>
<stop offset="1" stop-color="#153879" stop-opacity="0"/>
</linearGradient>
<linearGradient id="paint5_linear_0_1" x1="954.237" y1="247.721" x2="1441.02" y2="267.548" gradientUnits="userSpaceOnUse">
<stop stop-color="#2970F1"/>
<stop offset="1" stop-color="#153879" stop-opacity="0"/>
</linearGradient>
<linearGradient id="paint6_linear_0_1" x1="1164.24" y1="247.721" x2="1651.02" y2="267.548" gradientUnits="userSpaceOnUse">
<stop stop-color="#2970F1"/>
<stop offset="1" stop-color="#153879" stop-opacity="0"/>
</linearGradient>
<linearGradient id="paint7_linear_0_1" x1="1374.24" y1="247.721" x2="1861.02" y2="267.548" gradientUnits="userSpaceOnUse">
<stop stop-color="#2970F1"/>
<stop offset="1" stop-color="#153879" stop-opacity="0"/>
</linearGradient>
</defs>
</svg>
