<svg width="1920" height="1181" viewBox="0 0 1920 1181" fill="none" xmlns="http://www.w3.org/2000/svg">
<path d="M-454 1087.52C-454 1087.52 301.2 1355.55 624.4 979.613C947.6 603.68 898.388 335.152 1519.19 401.288C2139.99 467.425 2214.8 185.976 2214.8 185.976C2214.8 185.976 1584.4 -231.727 1558.8 -231.727C1533.2 -231.727 -374 22.3758 -374 22.3758L-454 1087.52Z" fill="#563D9A"/>
<g style="mix-blend-mode:multiply" opacity="0.15">
<path d="M-292.933 964.951C-292.933 964.951 297.443 1331.5 753.2 577.309C1007.51 156.476 1475.63 273.962 1793.2 399.179C2045.44 498.638 2183.6 99.8251 2183.6 99.8251L2017.37 -232.255C2017.37 -232.255 -229.904 -145.233 -239.601 -145.233C-249.298 -145.233 -292.933 964.951 -292.933 964.951Z" fill="#563D9A"/>
</g>
</svg>
