<svg width="1920" height="2198" viewBox="0 0 1920 2198" fill="none" xmlns="http://www.w3.org/2000/svg">
<path d="M1451.74 90.517C2401.79 -265.204 2608.55 516.543 2608.55 1042.07C2608.55 1567.6 1736.76 2104.66 1097.87 2104.66C458.982 2104.66 164.204 1563.39 338.047 1042.07C440.079 736.097 -108.376 891.969 -219.285 788.557C-361.925 628.891 -314.812 305.791 47.7641 196.861C410.34 87.9303 1195.22 186.562 1451.74 90.517Z" fill="#FFE530"/>
<g style="mix-blend-mode:multiply" opacity="0.15">
<path d="M1065.68 303.709C1537.75 303.709 2245.12 1027.22 2245.12 1383.23C2245.12 1739.25 1862.44 2027.86 1390.37 2027.86C918.306 2027.86 535.621 1739.25 535.621 1383.23C535.621 1039.68 165.563 408.014 593.742 360.41C609.08 358.706 1049.16 303.709 1065.68 303.709Z" fill="#FFE530"/>
</g>
<g style="mix-blend-mode:multiply" opacity="0.15">
<path d="M1508.57 2197.55C1915.35 2197.55 2245.12 1826.86 2245.12 1369.58C2245.12 912.306 1915.35 541.612 1508.57 541.612C1101.78 541.612 772.013 912.306 772.013 1369.58C772.013 1826.86 1101.78 2197.55 1508.57 2197.55Z" fill="#ECDE2E"/>
</g>
</svg>
