<svg width="254" height="538" viewBox="0 0 254 538" fill="none" xmlns="http://www.w3.org/2000/svg">
<path d="M199.16 329.413C172.049 444.501 61.2903 510.705 -48.2241 477.285C-157.739 443.864 -224.543 323.473 -197.433 208.385C-170.323 93.2973 -59.5695 27.0915 49.9509 60.5138C159.471 93.9361 226.27 214.325 199.16 329.413Z" fill="#FF8001"/>
<path style="mix-blend-mode:multiply" opacity="0.15" d="M-104.511 218.005C-125.567 307.391 -73.8842 400.833 10.925 426.714C95.7341 452.595 181.555 401.115 202.61 311.73C223.666 222.344 171.983 128.902 87.1742 103.021C2.36507 77.1399 -83.4554 128.62 -104.511 218.005Z" fill="url(#paint0_linear_1_457)"/>
<g style="mix-blend-mode:multiply" opacity="0.15">
<path d="M-33.3864 239.234C-49.4998 307.638 -9.86147 379.173 55.1481 399.012C120.158 418.851 185.921 379.481 202.034 311.077C218.148 242.673 178.509 171.138 113.5 151.299C48.49 131.46 -17.2731 170.83 -33.3864 239.234Z" fill="#FF8001"/>
</g>
<defs>
<linearGradient id="paint0_linear_1_457" x1="-77.7475" y1="104.389" x2="245.263" y2="525.405" gradientUnits="userSpaceOnUse">
<stop stop-color="#FFE530"/>
<stop offset="1" stop-color="#FFCC55"/>
</linearGradient>
</defs>
</svg>
