<svg width="261" height="284" viewBox="0 0 261 284" fill="none" xmlns="http://www.w3.org/2000/svg">
<g filter="url(#filter0_d_1_615)">
<path d="M235 3.6084H26C14.9543 3.6084 6 13.3486 6 25.3638V252.708C6 264.723 14.9543 274.463 26 274.463H235C246.046 274.463 255 264.723 255 252.708V25.3638C255 13.3486 246.046 3.6084 235 3.6084Z" fill="white"/>
</g>
<path d="M190.831 76.6414C190.598 75.2992 190.026 74.0544 189.177 73.0471C188.329 72.0399 187.24 71.3102 186.031 70.9404C184.844 70.5729 183.587 70.5734 182.4 70.9419C181.214 71.3103 180.146 72.032 179.316 73.0256C171.566 82.2053 159.436 96.3898 145.316 112.421C140.578 110.554 135.568 109.639 130.529 109.718C125.481 109.652 120.464 110.577 115.718 112.449C101.544 96.3659 89.439 82.1814 81.688 73.0017C80.8577 72.0088 79.7894 71.2874 78.603 70.9184C77.4167 70.5495 76.1592 70.5477 74.972 70.9132C73.7635 71.2835 72.6741 72.0135 71.8264 73.0209C70.9787 74.0283 70.4064 75.2731 70.174 76.6152C67.7267 89.4181 67.162 102.562 68.501 115.557C69.5133 124.893 71.8973 133.992 75.562 142.506C80.606 154.094 86.609 160.571 88.7 162.63C89.7335 169.814 92.1116 176.691 95.687 182.836C101.044 191.687 108.408 198.886 117.068 203.739C121.186 206.162 125.795 207.432 130.477 207.432C135.159 207.432 139.768 206.162 143.886 203.739C152.536 198.869 159.896 191.674 165.267 182.836C168.835 176.709 171.205 169.849 172.23 162.683C174.297 160.676 180.325 154.198 185.418 142.504C189.068 133.985 191.451 124.889 192.479 115.557C193.84 102.573 193.283 89.4349 190.831 76.6414ZM187.631 114.645C186.697 123.388 184.496 131.915 181.111 139.909C178.94 144.988 176.196 149.753 172.943 154.094C173.007 149.459 172.678 144.827 171.959 140.257C171.906 139.911 171.79 139.58 171.619 139.282C171.448 138.985 171.225 138.726 170.962 138.523C170.699 138.319 170.402 138.173 170.088 138.094C169.773 138.016 169.448 138.005 169.129 138.063C168.811 138.121 168.507 138.246 168.233 138.432C167.959 138.619 167.722 138.861 167.535 139.147C167.347 139.433 167.214 139.756 167.141 140.098C167.069 140.44 167.059 140.794 167.112 141.141C169.425 156.128 167.412 169.189 161.133 179.948C155.499 189.582 147.404 195.631 141.573 199.003C138.173 201.006 134.368 202.054 130.501 202.054C126.635 202.054 122.83 201.006 119.43 199.003C108.9 192.875 102.97 185.248 99.87 179.948C93.597 169.184 91.579 156.131 93.892 141.141C93.9453 140.794 93.9354 140.44 93.8629 140.098C93.7903 139.756 93.6566 139.433 93.4692 139.147C93.0909 138.57 92.5172 138.18 91.8745 138.063C91.2317 137.946 90.5725 138.111 90.0419 138.523C89.5113 138.934 89.1527 139.558 89.045 140.257C88.3263 144.809 87.9969 149.423 88.061 154.041C84.8202 149.714 82.0846 144.968 79.917 139.909C76.5315 131.915 74.331 123.388 73.397 114.645C72.1531 102.3 72.7011 89.8199 75.021 77.6606C75.0734 77.2885 75.2242 76.941 75.455 76.6606C75.6859 76.3801 75.9868 76.1788 76.321 76.0812C76.6306 75.9762 76.962 75.9736 77.273 76.0738C77.584 76.1739 77.8607 76.3722 78.068 76.6435C85.621 85.5556 97.284 99.2322 110.939 114.727C109.247 115.699 107.64 116.837 106.139 118.127C105.736 118.469 105.442 118.94 105.297 119.474C105.153 120.008 105.165 120.577 105.334 121.102C105.502 121.628 105.817 122.083 106.235 122.403C106.653 122.724 107.153 122.894 107.664 122.89C108.215 122.888 108.75 122.69 109.189 122.328C111.217 120.604 113.452 119.19 115.832 118.126C115.968 118.075 116.099 118.012 116.226 117.939C120.739 115.998 125.551 115.016 130.404 115.046H130.704C135.52 115.015 140.297 115.987 144.777 117.91C144.955 118.018 145.145 118.099 145.343 118.151C147.694 119.217 149.903 120.621 151.912 122.326C152.165 122.55 152.456 122.717 152.769 122.817C153.082 122.917 153.411 122.949 153.735 122.909C154.059 122.87 154.373 122.761 154.658 122.588C154.943 122.415 155.193 122.182 155.394 121.902C155.595 121.623 155.743 121.303 155.829 120.961C155.916 120.618 155.938 120.261 155.895 119.909C155.853 119.557 155.746 119.218 155.582 118.911C155.418 118.605 155.199 118.337 154.938 118.123C153.437 116.833 151.83 115.695 150.138 114.724C163.767 99.2289 175.452 85.5535 182.982 76.6414C183.197 76.3811 183.474 76.1908 183.782 76.0916C184.091 75.9923 184.418 75.9879 184.729 76.079C185.061 76.1813 185.359 76.3841 185.589 76.6637C185.82 76.9433 185.972 77.2883 186.029 77.6584C188.343 89.8195 188.883 102.301 187.631 114.645Z" fill="#B1BBCD"/>
<path d="M144.551 173.712C143.937 173.982 143.303 174.197 142.656 174.353C142.613 174.349 142.571 174.359 142.533 174.381C140.609 174.881 138.589 174.722 136.751 173.926C136.726 173.926 136.702 173.899 136.677 173.899C136.577 173.845 136.477 173.818 136.377 173.765C136.214 173.692 136.057 173.602 135.91 173.497C134.893 172.895 133.972 172.117 133.184 171.193V169.803C133.725 169.455 134.39 169.027 135.029 168.519C137.809 166.457 139.089 164.558 139.089 162.604C139.091 161.497 138.746 160.421 138.111 159.555C137.476 158.689 136.588 158.085 135.595 157.841C133.971 157.401 132.298 157.212 130.625 157.279C128.952 157.212 127.279 157.401 125.655 157.841C124.662 158.084 123.775 158.688 123.14 159.553C122.505 160.418 122.159 161.493 122.161 162.6C122.161 164.581 123.461 166.454 126.221 168.514C126.935 169.049 127.648 169.504 128.214 169.879V171.193C127.419 172.11 126.498 172.887 125.483 173.495C125.183 173.656 124.893 173.822 124.573 173.95L124.204 174.111H124.179C122.784 174.653 121.29 174.818 119.824 174.593H119.75C119.629 174.562 119.505 174.544 119.381 174.539C119.309 174.517 119.234 174.508 119.16 174.512L118.86 174.432C118.164 174.257 117.481 174.024 116.818 173.736C116.216 173.479 115.545 173.49 114.951 173.768C114.357 174.046 113.888 174.567 113.645 175.219C113.402 175.871 113.405 176.601 113.654 177.25C113.902 177.899 114.376 178.416 114.973 178.687C115.309 178.845 115.654 178.979 116.006 179.088C117.306 183.157 121.493 189.232 130.522 189.232C139.453 189.232 143.66 183.291 144.989 179.224C145.432 179.063 145.875 178.898 146.342 178.689C146.641 178.558 146.913 178.363 147.143 178.117C147.373 177.87 147.556 177.577 147.682 177.254C147.807 176.931 147.873 176.584 147.876 176.233C147.878 175.882 147.816 175.534 147.695 175.208C147.585 174.881 147.414 174.581 147.195 174.327C146.975 174.073 146.71 173.87 146.417 173.73C146.123 173.59 145.806 173.516 145.485 173.513C145.165 173.51 144.847 173.578 144.551 173.712Z" fill="#B1BBCD"/>
<path d="M122.112 148.372C122.445 147.762 122.541 147.032 122.38 146.345C122.218 145.657 121.812 145.067 121.251 144.705C120.69 144.343 120.019 144.238 119.387 144.414C118.755 144.59 118.213 145.031 117.88 145.642C115.174 150.646 109.367 149.924 109.096 149.87C108.776 149.823 108.45 149.845 108.138 149.935C107.826 150.026 107.533 150.182 107.277 150.396C107.021 150.61 106.806 150.877 106.645 151.182C106.485 151.487 106.381 151.823 106.34 152.172C106.256 152.877 106.431 153.59 106.827 154.156C107.223 154.723 107.808 155.096 108.456 155.196C108.986 155.279 109.521 155.315 110.056 155.304C112.886 155.299 118.791 154.496 122.112 148.372Z" fill="#B1BBCD"/>
<path d="M151.907 149.894C151.858 149.894 145.879 150.724 143.123 145.638C142.958 145.336 142.74 145.072 142.482 144.862C142.223 144.651 141.929 144.498 141.616 144.411C141.303 144.324 140.977 144.305 140.657 144.355C140.338 144.405 140.03 144.523 139.752 144.702C139.474 144.881 139.231 145.118 139.038 145.4C138.844 145.681 138.703 146.001 138.623 146.341C138.543 146.682 138.526 147.036 138.572 147.384C138.618 147.732 138.726 148.067 138.891 148.369C142.213 154.497 148.117 155.3 150.971 155.3C151.506 155.311 152.041 155.275 152.571 155.191C153.217 155.095 153.802 154.724 154.196 154.16C154.591 153.595 154.763 152.883 154.675 152.18C154.587 151.478 154.246 150.842 153.727 150.412C153.208 149.983 152.553 149.796 151.907 149.892V149.894Z" fill="#B1BBCD"/>
<defs>
<filter id="filter0_d_1_615" x="0" y="0.608398" width="261" height="282.855" filterUnits="userSpaceOnUse" color-interpolation-filters="sRGB">
<feFlood flood-opacity="0" result="BackgroundImageFix"/>
<feColorMatrix in="SourceAlpha" type="matrix" values="0 0 0 0 0 0 0 0 0 0 0 0 0 0 0 0 0 0 127 0" result="hardAlpha"/>
<feOffset dy="3"/>
<feGaussianBlur stdDeviation="3"/>
<feColorMatrix type="matrix" values="0 0 0 0 0 0 0 0 0 0 0 0 0 0 0 0 0 0 0.161 0"/>
<feBlend mode="normal" in2="BackgroundImageFix" result="effect1_dropShadow_1_615"/>
<feBlend mode="normal" in="SourceGraphic" in2="effect1_dropShadow_1_615" result="shape"/>
</filter>
</defs>
</svg>
