<svg width="154" height="171" viewBox="0 0 154 171" fill="none" xmlns="http://www.w3.org/2000/svg">
<mask id="mask0_1_569" style="mask-type:luminance" maskUnits="userSpaceOnUse" x="0" y="0" width="154" height="171">
<path d="M153.422 0H0V170.669H153.422V0Z" fill="white"/>
</mask>
<g mask="url(#mask0_1_569)">
<mask id="mask1_1_569" style="mask-type:luminance" maskUnits="userSpaceOnUse" x="0" y="0" width="154" height="171">
<path d="M153.422 0H0V170.669H153.422V0Z" fill="white"/>
</mask>
<g mask="url(#mask1_1_569)">
<g opacity="0.65">
<mask id="mask2_1_569" style="mask-type:luminance" maskUnits="userSpaceOnUse" x="19" y="29" width="116" height="113">
<path d="M134.243 29.4362H19.178V141.233H134.243V29.4362Z" fill="white"/>
</mask>
<g mask="url(#mask2_1_569)">
<path d="M134.243 85.3345C134.243 116.206 108.485 141.233 76.71 141.233C44.935 141.233 19.178 116.206 19.178 85.3345C19.178 54.4625 44.936 29.4362 76.709 29.4362C108.482 29.4362 134.243 54.4625 134.243 85.3345Z" fill="white"/>
</g>
</g>
<path d="M153.422 75.4303C153.422 112.59 126.1 143.469 90.132 149.702L76.711 170.671L62.6 149.579C26.969 143.073 0 112.352 0 75.4303C0 33.7687 34.345 0 76.711 0C119.077 0 153.422 33.7687 153.422 75.4303Z" fill="#AEDAB9"/>
<path d="M134.243 75.8947C134.243 108.039 108.485 134.098 76.71 134.098C44.935 134.098 19.177 108.039 19.177 75.8947C19.177 43.75 44.936 17.6914 76.709 17.6914C108.482 17.6914 134.243 43.75 134.243 75.8947Z" fill="white"/>
<path d="M124.597 82.2864C124.597 107.188 103.158 127.374 76.711 127.374C50.264 127.374 28.824 107.188 28.824 82.2864C28.824 57.3852 50.263 37.1984 76.711 37.1984C103.159 37.1984 124.597 57.3852 124.597 82.2864Z" fill="#AEDAB9"/>
<path d="M105.31 90.5558C105.101 91.6806 104.965 92.8271 104.673 93.9279C103.809 96.9686 102.215 99.7037 100.055 101.851C97.8957 103.999 95.249 105.482 92.3876 106.147C89.5262 106.812 86.5535 106.635 83.7759 105.634C80.9982 104.634 78.516 102.846 76.5849 100.454C76.4989 100.346 76.4089 100.249 76.3259 100.152C75.5379 100.954 74.8179 101.815 73.9819 102.517C69.1249 106.595 63.7049 107.738 57.9039 105.438C55.1757 104.453 52.7539 102.661 50.9106 100.262C49.0672 97.8635 47.8753 94.953 47.4689 91.8579C47.273 90.7886 47.2215 89.6941 47.3159 88.6087C47.4361 87.6245 47.9059 86.7307 48.6246 86.1187C49.3433 85.5067 50.2537 85.2252 51.1609 85.3345C52.0595 85.3965 52.9025 85.8287 53.5184 86.5431C54.1343 87.2575 54.4767 88.2004 54.4759 89.1798C54.4896 91.0711 55.011 92.9168 55.9759 94.4903C57.058 96.2215 58.6162 97.5356 60.4272 98.2442C62.2382 98.9528 64.209 99.0194 66.0569 98.4345C67.8963 97.8685 69.5195 96.6738 70.6866 95.027C71.8537 93.3802 72.5028 91.3686 72.5379 89.2896C72.5379 88.9274 72.5379 88.5663 72.5379 88.2595C73.782 88.4779 75.0362 88.6209 76.2949 88.6881C77.5012 88.6262 78.7032 88.4885 79.8949 88.2758C79.9884 89.4704 80.1514 90.6574 80.3829 91.8296C80.9694 93.9489 82.1957 95.7912 83.8637 97.0588C85.5316 98.3264 87.5437 98.9453 89.5749 98.8153C91.6061 98.6854 93.5377 97.8143 95.0575 96.3428C96.5774 94.8714 97.5968 92.8854 97.9509 90.7059C98.0459 90.0533 98.0319 89.3767 98.1169 88.7185C98.215 87.8423 98.586 87.029 99.1682 86.414C99.7505 85.7991 100.509 85.4196 101.317 85.3389C102.165 85.2357 103.019 85.4634 103.727 85.9813C104.434 86.4993 104.95 87.2739 105.182 88.1671C105.213 88.2758 105.263 88.3846 105.305 88.4934L105.31 90.5558Z" fill="#4E4E4E"/>
<path d="M76.2951 56.862C78.9951 56.862 81.6951 56.8479 84.4021 56.862C85.5482 56.8417 86.686 57.0766 87.7456 57.5522C88.8051 58.0278 89.7641 58.7341 90.5635 59.6277C91.3629 60.5213 91.9858 61.5833 92.394 62.7484C92.8022 63.9135 92.987 65.1572 92.9371 66.4028C92.8601 68.3845 92.1637 70.2782 90.9631 71.771C88.4051 75.0647 85.8581 78.3683 83.2631 81.6327C82.3966 82.7108 81.329 83.5759 80.1314 84.1705C78.9337 84.7651 77.6335 85.0756 76.317 85.0812C75.0005 85.0869 73.698 84.7876 72.4961 84.2034C71.2942 83.6191 70.2204 82.7632 69.3461 81.6925C66.7027 78.3973 64.1027 75.0615 61.5461 71.6851C60.4833 70.3996 59.8082 68.7908 59.6115 67.0753C59.4149 65.3597 59.7061 63.6198 60.4461 62.0898C61.1048 60.4883 62.187 59.1364 63.5548 58.2065C64.9226 57.2766 66.514 56.8108 68.1261 56.8685C70.8461 56.8142 73.5681 56.8577 76.2891 56.8577" fill="#4E4E4E"/>
</g>
</g>
</svg>
