<svg width="262" height="284" viewBox="0 0 262 284" fill="none" xmlns="http://www.w3.org/2000/svg">
<g filter="url(#filter0_d_1_625)">
<path d="M235.968 3.93701H26.9678C15.9221 3.93701 6.96777 13.6772 6.96777 25.6924V253.036C6.96777 265.051 15.9221 274.792 26.9678 274.792H235.968C247.013 274.792 255.968 265.051 255.968 253.036V25.6924C255.968 13.6772 247.013 3.93701 235.968 3.93701Z" fill="white"/>
</g>
<path d="M148.311 132.233V129.472C148.311 128.974 148.129 128.497 147.806 128.145C147.482 127.793 147.043 127.596 146.586 127.596C146.128 127.596 145.69 127.793 145.366 128.145C145.043 128.497 144.861 128.974 144.861 129.472V132.232C144.861 132.729 145.043 133.207 145.366 133.559C145.69 133.91 146.128 134.108 146.586 134.108C147.043 134.108 147.482 133.91 147.806 133.559C148.129 133.207 148.311 132.731 148.311 132.233Z" fill="#B1BBCD"/>
<path d="M174.718 132.233V129.472C174.718 128.974 174.536 128.497 174.213 128.145C173.889 127.793 173.451 127.596 172.993 127.596C172.536 127.596 172.097 127.793 171.773 128.145C171.45 128.497 171.268 128.974 171.268 129.472V132.232C171.268 132.729 171.45 133.207 171.773 133.559C172.097 133.91 172.536 134.108 172.993 134.108C173.451 134.108 173.889 133.91 174.213 133.559C174.536 133.207 174.718 132.731 174.718 132.233Z" fill="#B1BBCD"/>
<path d="M159.828 137.873C160.527 138.503 161.376 138.904 162.277 139.029C163.177 139.154 164.092 138.998 164.914 138.579C165.736 138.16 166.432 137.496 166.92 136.663C167.408 135.83 167.668 134.864 167.67 133.876C167.67 133.379 167.488 132.901 167.165 132.55C166.841 132.198 166.403 132 165.945 132C165.488 132 165.049 132.198 164.725 132.55C164.402 132.901 164.22 133.379 164.22 133.876C164.22 134.26 164.08 134.629 163.83 134.9C163.581 135.172 163.242 135.324 162.889 135.324C162.536 135.324 162.198 135.172 161.948 134.9C161.698 134.629 161.558 134.26 161.558 133.876C161.558 133.379 161.376 132.901 161.053 132.55C160.729 132.198 160.291 132 159.833 132C159.376 132 158.937 132.198 158.613 132.55C158.29 132.901 158.108 133.379 158.108 133.876C158.108 134.261 157.968 134.629 157.718 134.901C157.468 135.172 157.13 135.325 156.777 135.325C156.423 135.325 156.085 135.172 155.835 134.901C155.585 134.629 155.445 134.261 155.445 133.876C155.445 133.379 155.263 132.901 154.94 132.55C154.616 132.198 154.178 132 153.72 132C153.263 132 152.824 132.198 152.5 132.55C152.177 132.901 151.995 133.379 151.995 133.876C151.994 134.865 152.253 135.833 152.74 136.667C153.227 137.501 153.923 138.167 154.746 138.586C155.568 139.006 156.484 139.161 157.385 139.035C158.286 138.908 159.135 138.505 159.833 137.872L159.828 137.873Z" fill="#B1BBCD"/>
<path d="M142.474 147.364V148.902C142.474 150.643 143.11 152.313 144.242 153.545C145.374 154.776 146.91 155.468 148.511 155.468C150.112 155.468 151.647 154.776 152.779 153.545C153.911 152.313 154.547 150.643 154.547 148.902V147.364C154.547 146.866 154.365 146.389 154.042 146.037C153.718 145.685 153.28 145.487 152.822 145.487C152.365 145.487 151.926 145.685 151.602 146.037C151.279 146.389 151.097 146.866 151.097 147.364V148.902C151.097 149.648 150.825 150.363 150.34 150.891C149.855 151.418 149.197 151.715 148.511 151.715C147.825 151.715 147.168 151.418 146.683 150.891C146.198 150.363 145.925 149.648 145.925 148.902V147.364C145.925 146.866 145.743 146.389 145.42 146.037C145.096 145.685 144.658 145.487 144.2 145.487C143.743 145.487 143.304 145.685 142.98 146.037C142.657 146.389 142.474 146.866 142.474 147.364Z" fill="#B1BBCD"/>
<path d="M171.106 155.468C172.706 155.466 174.241 154.773 175.372 153.542C176.504 152.311 177.14 150.642 177.142 148.901V147.364C177.142 146.866 176.96 146.389 176.637 146.037C176.313 145.685 175.874 145.487 175.417 145.487C174.959 145.487 174.521 145.685 174.197 146.037C173.874 146.389 173.692 146.866 173.692 147.364V148.902C173.692 149.648 173.419 150.363 172.934 150.891C172.449 151.418 171.792 151.715 171.106 151.715C170.42 151.715 169.762 151.418 169.277 150.891C168.792 150.363 168.52 149.648 168.52 148.902V147.364C168.52 146.866 168.338 146.389 168.015 146.037C167.691 145.685 167.252 145.487 166.795 145.487C166.337 145.487 165.899 145.685 165.575 146.037C165.252 146.389 165.07 146.866 165.07 147.364V148.902C165.072 150.642 165.709 152.311 166.84 153.542C167.972 154.773 169.506 155.465 171.106 155.468Z" fill="#B1BBCD"/>
<path d="M103.309 101.172C103.767 101.172 104.205 100.974 104.529 100.622C104.852 100.27 105.034 99.7928 105.034 99.2951C105.034 97.7575 104.472 96.2828 103.473 95.1955C102.473 94.1082 101.118 93.4973 99.704 93.4973C98.2904 93.4973 96.9347 94.1082 95.9351 95.1955C94.9356 96.2828 94.374 97.7575 94.374 99.2951C94.374 99.7928 94.5558 100.27 94.8793 100.622C95.2028 100.974 95.6415 101.172 96.099 101.172C96.5565 101.172 96.9953 100.974 97.3188 100.622C97.6423 100.27 97.824 99.7928 97.824 99.2951C97.824 98.7528 98.0221 98.2326 98.3747 97.8491C98.7272 97.4656 99.2054 97.2501 99.704 97.2501C100.203 97.2501 100.681 97.4656 101.033 97.8491C101.386 98.2326 101.584 98.7528 101.584 99.2951C101.584 99.7928 101.766 100.27 102.089 100.622C102.413 100.974 102.852 101.172 103.309 101.172Z" fill="#B1BBCD"/>
<path d="M128.324 101.172C128.782 101.172 129.22 100.974 129.544 100.622C129.867 100.27 130.049 99.7928 130.049 99.2951C130.049 98.7528 130.247 98.2326 130.6 97.8491C130.952 97.4656 131.431 97.2501 131.929 97.2501C132.428 97.2501 132.906 97.4656 133.258 97.8491C133.611 98.2326 133.809 98.7528 133.809 99.2951C133.809 99.7928 133.991 100.27 134.314 100.622C134.638 100.974 135.077 101.172 135.534 101.172C135.992 101.172 136.43 100.974 136.754 100.622C137.077 100.27 137.259 99.7928 137.259 99.2951C137.259 97.7575 136.698 96.2828 135.698 95.1955C134.698 94.1082 133.343 93.4973 131.929 93.4973C130.516 93.4973 129.16 94.1082 128.16 95.1955C127.161 96.2828 126.599 97.7575 126.599 99.2951C126.599 99.5415 126.644 99.7855 126.73 100.013C126.817 100.241 126.944 100.448 127.104 100.622C127.265 100.796 127.455 100.934 127.664 101.029C127.873 101.123 128.098 101.172 128.324 101.172Z" fill="#B1BBCD"/>
<path d="M120.941 105.111C121.094 104.926 121.212 104.71 121.288 104.475C121.363 104.24 121.395 103.991 121.381 103.742C121.368 103.494 121.309 103.251 121.208 103.027C121.107 102.804 120.966 102.605 120.793 102.441C120.621 102.277 120.42 102.153 120.203 102.074C119.985 101.996 119.756 101.965 119.528 101.984C119.299 102.003 119.077 102.072 118.873 102.185C118.67 102.299 118.489 102.455 118.341 102.645C118.027 103.038 117.639 103.353 117.204 103.569C116.769 103.785 116.296 103.896 115.817 103.896C115.339 103.896 114.866 103.785 114.431 103.569C113.996 103.353 113.608 103.038 113.294 102.645C112.991 102.28 112.568 102.058 112.116 102.029C111.664 101.999 111.22 102.164 110.879 102.487C110.538 102.811 110.327 103.267 110.293 103.758C110.258 104.249 110.402 104.735 110.694 105.111C111.332 105.907 112.12 106.545 113.003 106.982C113.887 107.419 114.847 107.645 115.817 107.645C116.788 107.645 117.748 107.419 118.631 106.982C119.515 106.545 120.303 105.907 120.941 105.111Z" fill="#B1BBCD"/>
<path d="M190.335 146.167C190.064 143.246 190.714 137.239 187.652 129.616C190.245 118.5 188.863 111.325 187.221 107.241C186.705 105.964 185.872 104.868 184.816 104.075C183.761 103.283 182.523 102.824 181.242 102.752C170.705 102.229 164.725 107.807 162.817 109.967C160.816 109.753 158.8 109.753 156.799 109.967C156.117 109.203 155.382 108.498 154.599 107.859C156.803 106.399 158.405 104.072 159.074 101.361C159.743 98.6496 159.427 95.7625 158.191 93.2983C157.777 89.3189 156.887 85.4154 155.542 81.6874C162.064 84.2187 168.07 81.955 172.992 76.6554C173.673 75.9208 174.165 75.0051 174.419 73.9994C174.674 72.9936 174.682 71.933 174.442 70.9229C174.203 69.9128 173.725 68.9885 173.055 68.2419C172.385 67.4954 171.547 66.9525 170.625 66.6675C168.869 66.1634 167.267 65.1643 165.98 63.771C164.692 62.3777 163.766 60.6396 163.294 58.7322C162.46 55.6592 160.744 52.9572 158.397 51.0219C156.049 49.0867 153.194 48.0198 150.248 47.9776C147.303 47.9354 144.423 48.9201 142.029 50.7874C139.636 52.6548 137.855 55.3067 136.947 58.3548C130.395 54.3018 122.968 52.2229 115.431 52.3322C107.895 52.4416 100.521 54.7353 94.071 58.977C93.6795 59.2347 93.3983 59.6511 93.289 60.1345C93.1798 60.6178 93.2515 61.1286 93.4885 61.5544C93.7255 61.9803 94.1082 62.2862 94.5526 62.4051C94.997 62.5239 95.4665 62.4458 95.858 62.1881C101.126 58.7431 107.067 56.6993 113.198 56.223C119.329 55.7467 125.477 56.8512 131.142 59.4469C136.807 62.0425 141.828 66.056 145.798 71.1607C149.768 76.2655 152.574 82.3174 153.988 88.8243C152.272 87.857 150.335 87.4501 148.411 87.6528C141.075 86.2387 133.602 82.7099 128.518 76.8708C127.619 75.8391 126.4 75.2071 125.098 75.0974C123.795 74.9876 122.501 75.408 121.467 76.2769C117.269 79.5719 112.576 82.0476 107.598 83.5932C99.8384 86.0468 91.8234 87.4164 83.746 87.6691C81.772 87.4275 79.7765 87.8296 78.013 88.8243C79.89 80.1373 84.2417 72.3173 90.447 66.4804C90.7699 66.1475 90.9621 65.6919 90.9834 65.2085C91.0048 64.7252 90.8536 64.2515 90.5616 63.8865C90.2695 63.5215 89.8591 63.2934 89.4161 63.2497C88.973 63.206 88.5316 63.3502 88.184 63.6522C80.1369 71.2176 75.0043 81.8021 73.808 93.2983C72.9893 94.9419 72.5716 96.7863 72.5947 98.6555C72.6178 100.525 73.081 102.356 73.94 103.975C74.799 105.594 76.0253 106.947 77.5016 107.904C78.978 108.86 80.6551 109.39 82.373 109.441C85.0198 118.941 90.9385 126.963 98.893 131.829C95.665 135.952 89.217 147.017 89.217 169.603C89.217 170.101 89.3987 170.578 89.7222 170.93C90.0457 171.282 90.4845 171.48 90.942 171.48H132.252C133.665 171.479 135.06 171.14 136.338 170.486C137.616 169.832 138.746 168.879 139.647 167.695C143.224 170.177 147.381 171.489 151.624 171.475H167.994C173.347 171.478 178.522 169.391 182.58 165.594C182.927 165.269 183.14 164.807 183.174 164.311C183.208 163.815 183.06 163.324 182.761 162.947C182.462 162.57 182.038 162.337 181.582 162.301C181.126 162.264 180.675 162.425 180.328 162.75C176.898 165.962 172.522 167.728 167.996 167.727H151.624C147.976 167.741 144.404 166.596 141.346 164.432C141.823 162.919 141.976 161.308 141.792 159.721C141.608 158.134 141.092 156.614 140.284 155.278C139.477 153.941 138.399 152.824 137.133 152.011C135.866 151.198 134.446 150.711 132.98 150.588C132.49 147.417 132.834 145.367 132.907 141.657C133.191 134.103 136.15 126.96 141.164 121.724C146.179 116.488 152.861 113.564 159.812 113.564C166.762 113.564 173.444 116.488 178.459 121.724C183.473 126.96 186.432 134.103 186.716 141.657L186.891 146.321C187.041 150.207 186.171 154.059 184.384 157.428C184.155 157.859 184.093 158.371 184.211 158.852C184.33 159.333 184.619 159.743 185.015 159.992C185.411 160.241 185.882 160.308 186.324 160.179C186.766 160.051 187.143 159.736 187.372 159.305C189.486 155.321 190.515 150.765 190.338 146.168L190.335 146.167ZM134.511 124.543C133.732 119.403 133.635 113.521 135.556 108.745C135.812 108.107 136.226 107.56 136.751 107.164C137.276 106.768 137.893 106.538 138.531 106.501C143.487 106.13 148.407 107.644 152.451 110.783C145.105 112.782 138.709 117.688 134.511 124.543ZM151.028 105.466C150.875 105.383 150.72 105.302 150.561 105.221C151.298 100.667 151.278 96.0062 150.501 91.4599C151.986 91.7397 153.338 92.5643 154.332 93.7966C155.325 95.0289 155.901 96.5943 155.963 98.2321C156.024 99.87 155.568 101.481 154.67 102.798C153.772 104.114 152.487 105.055 151.028 105.466ZM149.328 51.7596C151.682 51.5658 154.026 52.2584 155.966 53.7213C157.906 55.1841 159.325 57.3282 159.984 59.7939C160.621 62.3122 161.852 64.6055 163.556 66.4456C165.26 68.2858 167.377 69.6088 169.697 70.2832C170.038 70.3917 170.346 70.5948 170.593 70.8726C170.839 71.1503 171.015 71.4932 171.102 71.8672C171.19 72.2413 171.186 72.6338 171.092 73.0059C170.997 73.378 170.816 73.7169 170.564 73.9893C165.177 79.7904 159.332 80.5485 153.188 76.2442C149.977 69.9293 145.457 64.5149 139.988 60.4302C140.488 58.0898 141.665 55.9851 143.345 54.4246C145.024 52.8641 147.12 51.9298 149.323 51.7585L149.328 51.7596ZM81.508 105.592C79.9759 105.306 78.586 104.441 77.5837 103.148C76.5815 101.856 76.0313 100.22 76.0305 98.5288C76.0297 96.8379 76.5782 95.2011 77.5792 93.9074C78.5802 92.6138 79.9692 91.7465 81.501 91.4589C80.7003 96.13 80.7026 100.922 81.508 105.592ZM85.035 91.3882C111.979 90.3287 123.235 79.3629 123.935 79.0191C124.254 78.8599 124.607 78.8039 124.955 78.8577C125.302 78.9115 125.627 79.0729 125.892 79.3226C128.529 81.8245 133.805 88.3729 146.93 91.1717C147.763 95.3451 147.879 99.65 147.272 103.869C144.385 102.958 141.377 102.581 138.375 102.755C137.094 102.828 135.857 103.286 134.801 104.079C133.745 104.871 132.913 105.967 132.396 107.245C129.812 113.671 130.23 121.539 131.696 128.425C108.08 143.127 79.419 120.372 85.035 91.3882ZM92.68 167.727C92.818 159.911 93.869 149.452 97.764 140.711C98.8699 138.107 100.329 135.699 102.092 133.566C106.624 135.702 111.521 136.772 116.46 136.704C121.399 136.637 126.269 135.434 130.751 133.175C129.167 138.831 129.509 142.735 129.277 146.167C129.224 147.634 129.291 149.103 129.477 150.557C124.159 150.476 123.871 150.814 123.113 150.093L118.788 144.952C117.937 143.932 116.909 143.105 115.764 142.518C114.618 141.931 113.377 141.596 112.112 141.532C110.847 141.468 109.583 141.676 108.393 142.145C107.202 142.614 106.108 143.334 105.174 144.264C104.24 145.194 103.484 146.315 102.949 147.564C102.414 148.812 102.111 150.164 102.058 151.54C102.004 152.916 102.201 154.29 102.637 155.583C103.073 156.877 103.739 158.063 104.598 159.076C109.439 164.826 109.161 164.515 109.423 164.796C110.436 165.884 111.541 166.865 112.723 167.727H92.68ZM132.248 167.727H124.262C121.959 167.732 119.679 167.241 117.551 166.282C115.424 165.323 113.493 163.916 111.868 162.141C111.695 161.954 111.922 162.212 107.15 156.541C106.046 155.229 105.467 153.493 105.539 151.715C105.612 149.938 106.331 148.265 107.538 147.064C108.744 145.863 110.34 145.233 111.974 145.312C113.608 145.391 115.146 146.173 116.25 147.486C119.904 151.827 120.65 152.718 120.725 152.797C121.688 153.766 122.95 154.308 124.262 154.316H132.253C133.888 154.316 135.457 155.022 136.613 156.28C137.77 157.538 138.42 159.244 138.42 161.023C138.42 162.802 137.77 164.509 136.613 165.766C135.457 167.024 133.888 167.731 132.253 167.731L132.248 167.727ZM181.08 106.502C181.718 106.539 182.335 106.769 182.86 107.165C183.385 107.561 183.799 108.109 184.055 108.746C186.055 113.73 185.821 119.787 185.1 124.544C180.903 117.691 174.509 112.785 167.166 110.783C171.196 107.619 176.123 106.103 181.08 106.502Z" fill="#B1BBCD"/>
<path d="M96.2215 226.554V209.1H106.687V210.975H98.3352V216.873H105.903V218.748H98.3352V226.554H96.2215ZM114.392 226.827C113.21 226.827 112.173 226.546 111.281 225.983C110.395 225.421 109.702 224.634 109.202 223.623C108.707 222.611 108.46 221.429 108.46 220.077C108.46 218.714 108.707 217.523 109.202 216.506C109.702 215.489 110.395 214.699 111.281 214.137C112.173 213.574 113.21 213.293 114.392 213.293C115.574 213.293 116.608 213.574 117.494 214.137C118.386 214.699 119.08 215.489 119.574 216.506C120.074 217.523 120.324 218.714 120.324 220.077C120.324 221.429 120.074 222.611 119.574 223.623C119.08 224.634 118.386 225.421 117.494 225.983C116.608 226.546 115.574 226.827 114.392 226.827ZM114.392 225.02C115.29 225.02 116.028 224.79 116.608 224.33C117.187 223.87 117.616 223.265 117.895 222.515C118.173 221.765 118.312 220.952 118.312 220.077C118.312 219.202 118.173 218.387 117.895 217.631C117.616 216.875 117.187 216.265 116.608 215.799C116.028 215.333 115.29 215.1 114.392 215.1C113.494 215.1 112.756 215.333 112.176 215.799C111.597 216.265 111.168 216.875 110.889 217.631C110.611 218.387 110.472 219.202 110.472 220.077C110.472 220.952 110.611 221.765 110.889 222.515C111.168 223.265 111.597 223.87 112.176 224.33C112.756 224.79 113.494 225.02 114.392 225.02ZM131.644 221.202V213.464H133.655V226.554H131.644V224.339H131.508C131.201 225.003 130.724 225.569 130.076 226.035C129.428 226.495 128.61 226.725 127.621 226.725C126.803 226.725 126.076 226.546 125.44 226.188C124.803 225.824 124.303 225.279 123.94 224.552C123.576 223.819 123.394 222.895 123.394 221.782V213.464H125.405V221.645C125.405 222.6 125.673 223.361 126.207 223.929C126.746 224.498 127.434 224.782 128.269 224.782C128.769 224.782 129.278 224.654 129.795 224.398C130.317 224.143 130.755 223.75 131.107 223.222C131.465 222.694 131.644 222.02 131.644 221.202ZM139.351 218.679V226.554H137.339V213.464H139.283V215.509H139.453C139.76 214.844 140.226 214.31 140.851 213.907C141.476 213.498 142.283 213.293 143.271 213.293C144.158 213.293 144.933 213.475 145.598 213.839C146.263 214.196 146.78 214.742 147.149 215.475C147.518 216.202 147.703 217.123 147.703 218.236V226.554H145.692V218.373C145.692 217.344 145.425 216.543 144.891 215.969C144.356 215.39 143.624 215.1 142.692 215.1C142.05 215.1 141.476 215.239 140.97 215.518C140.47 215.796 140.075 216.202 139.785 216.736C139.496 217.27 139.351 217.918 139.351 218.679ZM156.322 226.827C155.231 226.827 154.268 226.552 153.432 226C152.597 225.444 151.944 224.66 151.472 223.648C151.001 222.631 150.765 221.429 150.765 220.043C150.765 218.668 151.001 217.475 151.472 216.464C151.944 215.452 152.6 214.671 153.441 214.12C154.282 213.569 155.254 213.293 156.356 213.293C157.208 213.293 157.881 213.435 158.376 213.719C158.876 213.998 159.256 214.316 159.518 214.674C159.785 215.026 159.992 215.316 160.14 215.543H160.31V209.1H162.322V226.554H160.379V224.543H160.14C159.992 224.782 159.782 225.083 159.509 225.446C159.236 225.804 158.847 226.125 158.342 226.41C157.836 226.688 157.163 226.827 156.322 226.827ZM156.594 225.02C157.401 225.02 158.083 224.81 158.64 224.39C159.197 223.964 159.62 223.375 159.91 222.625C160.2 221.87 160.344 220.998 160.344 220.009C160.344 219.032 160.202 218.177 159.918 217.444C159.634 216.705 159.214 216.131 158.657 215.722C158.1 215.307 157.413 215.1 156.594 215.1C155.742 215.1 155.032 215.319 154.464 215.756C153.901 216.188 153.478 216.776 153.194 217.52C152.915 218.259 152.776 219.089 152.776 220.009C152.776 220.941 152.918 221.787 153.202 222.549C153.492 223.304 153.918 223.907 154.481 224.356C155.049 224.799 155.754 225.02 156.594 225.02ZM168.944 209.1L168.773 221.645H166.796L166.626 209.1H168.944ZM167.785 226.691C167.364 226.691 167.004 226.54 166.702 226.239C166.401 225.938 166.251 225.577 166.251 225.157C166.251 224.736 166.401 224.375 166.702 224.074C167.004 223.773 167.364 223.623 167.785 223.623C168.205 223.623 168.566 223.773 168.867 224.074C169.168 224.375 169.319 224.736 169.319 225.157C169.319 225.435 169.248 225.691 169.106 225.924C168.969 226.157 168.785 226.344 168.552 226.486C168.325 226.623 168.069 226.691 167.785 226.691Z" fill="#707070"/>
<defs>
<filter id="filter0_d_1_625" x="0.967773" y="0.937012" width="261" height="282.855" filterUnits="userSpaceOnUse" color-interpolation-filters="sRGB">
<feFlood flood-opacity="0" result="BackgroundImageFix"/>
<feColorMatrix in="SourceAlpha" type="matrix" values="0 0 0 0 0 0 0 0 0 0 0 0 0 0 0 0 0 0 127 0" result="hardAlpha"/>
<feOffset dy="3"/>
<feGaussianBlur stdDeviation="3"/>
<feColorMatrix type="matrix" values="0 0 0 0 0 0 0 0 0 0 0 0 0 0 0 0 0 0 0.161 0"/>
<feBlend mode="normal" in2="BackgroundImageFix" result="effect1_dropShadow_1_625"/>
<feBlend mode="normal" in="SourceGraphic" in2="effect1_dropShadow_1_625" result="shape"/>
</filter>
</defs>
</svg>
